<svg xmlns="http://www.w3.org/2000/svg" viewBox="0 0 80 60"><title>customizer</title><rect width="80" height="60" fill="#fff"/><path d="M11.38,20.35a3.51,3.51,0,0,1,1.26,2.16h-2A1.78,1.78,0,0,0,8.88,21.3a1.65,1.65,0,0,0-1.34.61,2.85,2.85,0,0,0,0,3.23,1.71,1.71,0,0,0,1.34.6,1.85,1.85,0,0,0,1.76-1.15h2a3.59,3.59,0,0,1-1.26,2.11A3.84,3.84,0,0,1,9,27.51,4,4,0,0,1,7,27,3.41,3.41,0,0,1,5.63,25.6a4.71,4.71,0,0,1,0-4.11A3.32,3.32,0,0,1,7,20.07a3.79,3.79,0,0,1,2-.5A3.77,3.77,0,0,1,11.38,20.35Z" fill="#ccc"/><path d="M15.52,19.64v4.49a1.78,1.78,0,0,0,.34,1.18,1.42,1.42,0,0,0,2,0,1.78,1.78,0,0,0,.34-1.18V19.64h1.89v4.49A3.8,3.8,0,0,1,19.66,26a3,3,0,0,1-1.18,1.13,3.71,3.71,0,0,1-1.67.38,3.51,3.51,0,0,1-1.65-.38A2.66,2.66,0,0,1,14,26a3.89,3.89,0,0,1-.41-1.86V19.64Z" fill="#ccc"/><path d="M26.63,26.36a2.24,2.24,0,0,1-.92.83,3.28,3.28,0,0,1-1.48.31,3.61,3.61,0,0,1-2.16-.64,2.33,2.33,0,0,1-.92-1.78h2a1.08,1.08,0,0,0,.32.69.94.94,0,0,0,.68.25.86.86,0,0,0,.58-.19.76.76,0,0,0,.2-.53.66.66,0,0,0-.19-.5,1.32,1.32,0,0,0-.48-.29,5.82,5.82,0,0,0-.79-.3,12.57,12.57,0,0,1-1.2-.49,2.41,2.41,0,0,1-.81-.71,2.31,2.31,0,0,1,0-2.41,2.13,2.13,0,0,1,1-.78,3.4,3.4,0,0,1,1.4-.31,3.18,3.18,0,0,1,2.06.62,2.32,2.32,0,0,1,.86,1.69h-2a1.08,1.08,0,0,0-.28-.61.79.79,0,0,0-.61-.22.81.81,0,0,0-.54.17.74.74,0,0,0,0,1,1.44,1.44,0,0,0,.46.31l.79.31a7.62,7.62,0,0,1,1.22.5,2.19,2.19,0,0,1,.82.72,2.27,2.27,0,0,1,0,2.36Z" fill="#ccc"/><path d="M33.58,19.64v1.5H31.47v6.28H29.58V21.14H27.49v-1.5Z" fill="#ccc"/><path d="M40.06,20a3.72,3.72,0,0,1,1.42,1.42A4.09,4.09,0,0,1,42,23.51a4,4,0,0,1-.53,2.06A3.82,3.82,0,0,1,40,27a4.12,4.12,0,0,1-4,0,3.75,3.75,0,0,1-1.42-1.43,4.34,4.34,0,0,1,0-4.11A3.72,3.72,0,0,1,36,20a4.12,4.12,0,0,1,4,0ZM36.6,21.87a2.7,2.7,0,0,0,0,3.26,2.06,2.06,0,0,0,2.91,0h0a2.33,2.33,0,0,0,.55-1.62,2.32,2.32,0,0,0-.54-1.62,2.08,2.08,0,0,0-2.94,0Z" fill="#ccc"/><path d="M51.8,19.7v7.72H50V22.59l-1.68,4.83H46.62L45,22.58v4.84H43.05V19.7h2.3l2.1,5.38,2.06-5.38Z" fill="#ccc"/><path d="M55,19.64v7.78H53.09V19.64Z" fill="#ccc"/><path d="M58.22,25.9h3.43v1.52H56.13V26l3.38-4.84H56.17V19.64h5.46v1.43Z" fill="#ccc"/><path d="M64.69,21.14v1.63h2.63v1.42H64.69v1.72h3v1.51H62.81V19.64h4.84v1.5Z" fill="#ccc"/><path d="M72.71,27.42,71,24.51H70.6v2.94H68.71V19.64H72a3.36,3.36,0,0,1,1.56.32,2.24,2.24,0,0,1,1,.88,2.43,2.43,0,0,1,.32,1.27,2.34,2.34,0,0,1-.54,1.4,2.45,2.45,0,0,1-1.36.81l1.85,3.06ZM70.6,23.2h1.16a1.24,1.24,0,0,0,.83-.25,1.15,1.15,0,0,0,0-1.46,1.11,1.11,0,0,0-.82-.26H70.6Z" fill="#ccc"/><path d="M24.56,32.64l1.9,5.87,1.91-5.86h2l-2.71,7.78H25.24l-2.69-7.78Z" fill="#ccc"/><path d="M36,39H33l-.49,1.42h-2l2.85-7.72h2.19l2.85,7.72h-2Zm-.48-1.43-1-2.86-1,2.86Z" fill="#ccc"/><path d="M41,39h2.5v1.44H39.14V32.64H41Z" fill="#ccc"/><path d="M46.22,32.64v4.49a1.74,1.74,0,0,0,.35,1.18,1.25,1.25,0,0,0,1,.41,1.27,1.27,0,0,0,1-.41A1.77,1.77,0,0,0,49,37.13V32.64h1.88v4.49A3.8,3.8,0,0,1,50.41,39a2.89,2.89,0,0,1-1.17,1.13,3.9,3.9,0,0,1-1.68.38,3.51,3.51,0,0,1-1.65-.38A2.66,2.66,0,0,1,44.79,39a3.89,3.89,0,0,1-.41-1.86V32.64Z" fill="#ccc"/><path d="M54,34.14v1.63h2.63v1.42H54v1.72h3v1.51h-4.9V32.64H56.9v1.5Z" fill="#ccc"/></svg>