<svg xmlns="http://www.w3.org/2000/svg" viewBox="0 0 80 60"><title>default</title><rect width="80" height="60" fill="#fff"/><path d="M18.66,32.51a4.42,4.42,0,0,1-1.8,1.76,5.67,5.67,0,0,1-2.75.63H10.38V25h3.73a5.8,5.8,0,0,1,2.76.62,4.33,4.33,0,0,1,1.79,1.73,5.68,5.68,0,0,1,0,5.16ZM16.08,32a2.75,2.75,0,0,0,.78-2.09,2.75,2.75,0,0,0-.78-2.09,3,3,0,0,0-2.18-.74H12.77v5.66H13.9A3,3,0,0,0,16.08,32Z" fill="#ccc"/><path d="M23,26.91V29h3.35v1.8H23V33H26.8V34.9H20.64V25H26.8v1.91Z" fill="#ccc"/><path d="M34.61,25v1.91H30.55v2.17h3.14V30.9H30.55v4H28.16V25Z" fill="#ccc"/><path d="M42,33.09H38.26l-.61,1.81H35.13l3.62-9.83h2.76l3.63,9.83H42.59Zm-.61-1.82-1.23-3.64-1.25,3.64Z" fill="#ccc"/><path d="M48.39,25v5.71a2.2,2.2,0,0,0,.44,1.5,1.84,1.84,0,0,0,2.56,0,2.26,2.26,0,0,0,.44-1.5V25h2.39v5.71a4.73,4.73,0,0,1-.54,2.36,3.65,3.65,0,0,1-1.49,1.45,4.68,4.68,0,0,1-2.14.48,4.45,4.45,0,0,1-2.1-.48,3.42,3.42,0,0,1-1.43-1.44A5,5,0,0,1,46,30.71V25Z" fill="#ccc"/><path d="M58.21,33.07h3.2V34.9H55.82V25h2.39Z" fill="#ccc"/><path d="M69.62,25v1.91H66.94v8H64.53v-8H61.87V25Z" fill="#ccc"/></svg>