<svg xmlns="http://www.w3.org/2000/svg" viewBox="0 0 80 60">
  <rect width="80" height="60" fill="#fff"/>
  <g>
    <path d="M21.17,25.89a3.92,3.92,0,0,1,1.5,2.46H20.13a1.89,1.89,0,0,0-.77-.84A2.55,2.55,0,0,0,16.3,28,2.93,2.93,0,0,0,15.61,30a3,3,0,0,0,.72,2.17,2.72,2.72,0,0,0,2.05.76,2.42,2.42,0,0,0,2.41-1.81h-3V29.42h5v2.36a4.79,4.79,0,0,1-.89,1.62,4.69,4.69,0,0,1-1.58,1.2,5,5,0,0,1-2.19.46,5.16,5.16,0,0,1-2.62-.64,4.34,4.34,0,0,1-1.72-1.78,5.93,5.93,0,0,1,0-5.24,4.34,4.34,0,0,1,1.72-1.78A5.05,5.05,0,0,1,18.1,25,4.91,4.91,0,0,1,21.17,25.89Z" fill="#ccc"/>
    <path d="M26.53,33.14h3.19V35H24.14v-9.9h2.39Z" fill="#ccc"/>
    <path d="M38.07,25.58a4.58,4.58,0,0,1,1.8,1.8,5.51,5.51,0,0,1,0,5.23,4.77,4.77,0,0,1-1.81,1.81,5.23,5.23,0,0,1-5.05,0,4.7,4.7,0,0,1-1.81-1.81,5.51,5.51,0,0,1,0-5.23A4.74,4.74,0,0,1,33,25.58a5.25,5.25,0,0,1,5.06,0Zm-4.4,2.33A3,3,0,0,0,33,30a2.93,2.93,0,0,0,.7,2.07,2.36,2.36,0,0,0,1.86.78,2.39,2.39,0,0,0,1.87-.78,3.41,3.41,0,0,0,0-4.14,2.66,2.66,0,0,0-3.73,0Z" fill="#ccc"/>
    <path d="M49.23,30.75a2.38,2.38,0,0,1,.53,1.52,2.44,2.44,0,0,1-.85,2,3.63,3.63,0,0,1-2.43.72h-4.6v-9.9h4.49a3.66,3.66,0,0,1,2.34.66,2.25,2.25,0,0,1,.82,1.87,2.27,2.27,0,0,1-.47,1.49,2.17,2.17,0,0,1-1.25.78A2.46,2.46,0,0,1,49.23,30.75Zm-5-1.63h1.57c.83,0,1.24-.35,1.24-1.06S46.66,27,45.81,27H44.27Zm3,2.82a1,1,0,0,0-.35-.83,1.44,1.44,0,0,0-1-.3H44.27V33H46C46.86,33,47.31,32.67,47.31,31.94Z" fill="#ccc"/>
    <path d="M57.15,33.17H53.44L52.82,35H50.3l3.63-9.83h2.76L60.31,35H57.77Zm-.62-1.82L55.3,27.71l-1.24,3.64Z" fill="#ccc"/>
    <path d="M63.63,33.14h3.19V35H61.24v-9.9h2.39Z" fill="#ccc"/>
  </g>
</svg>
