<svg xmlns="http://www.w3.org/2000/svg" viewBox="0 0 80 60"><title>woocommerce-cart-layout--2-columns</title><rect width="80" height="60" fill="#fff"/><rect x="48" y="15" width="28" height="20" fill="#ccc"/><rect x="50" y="29" width="24" height="4" fill="#fff"/><rect x="50" y="17" width="13" height="1" fill="#fff"/><rect x="71" y="17" width="3" height="1" fill="#fff"/><rect x="50" y="20" width="9" height="1" fill="#fff"/><rect x="71" y="20" width="3" height="1" fill="#fff"/><rect x="50" y="23" width="11" height="1" fill="#fff"/><rect x="71" y="23" width="3" height="1" fill="#fff"/><rect x="5" y="16" width="5" height="5" fill="#ddd"/><rect x="12" y="18" width="10" height="1" fill="#ddd"/><rect x="32" y="18" width="4" height="1" fill="#ddd"/><rect x="38" y="18" width="4" height="1" fill="#ddd"/><rect x="5" y="24" width="5" height="5" fill="#ddd"/><rect x="12" y="26" width="10" height="1" fill="#ddd"/><rect x="32" y="26" width="4" height="1" fill="#ddd"/><rect x="38" y="26" width="4" height="1" fill="#ddd"/><rect x="5" y="32" width="5" height="5" fill="#ddd"/><rect x="12" y="34" width="10" height="1" fill="#ddd"/><rect x="32" y="34" width="4" height="1" fill="#ddd"/><rect x="38" y="34" width="4" height="1" fill="#ddd"/><rect x="5" y="40" width="5" height="5" fill="#ddd"/><rect x="12" y="42" width="10" height="1" fill="#ddd"/><rect x="32" y="42" width="4" height="1" fill="#ddd"/><rect x="38" y="42" width="4" height="1" fill="#ddd"/></svg>