<svg xmlns="http://www.w3.org/2000/svg" viewBox="0 0 80 60"><title>woocommerce-checkout-layout--2-columns</title><rect width="80" height="60" fill="#fff"/><rect x="48" y="4" width="28" height="34" fill="#ccc"/><rect x="50" y="32" width="24" height="4" fill="#fff"/><rect x="50" y="17" width="24" height="6" fill="#ddd"/><rect x="50" y="6" width="13" height="1" fill="#fff"/><rect x="71" y="6" width="3" height="1" fill="#fff"/><rect x="50" y="9" width="9" height="1" fill="#fff"/><rect x="71" y="9" width="3" height="1" fill="#fff"/><rect x="50" y="12" width="11" height="1" fill="#fff"/><rect x="71" y="12" width="3" height="1" fill="#fff"/><rect x="50" y="24" width="24" height="6" fill="#ddd"/><rect x="4" y="4" width="10" height="1" fill="#ddd"/><rect x="4" y="6" width="38" height="4" fill="#ddd"/><rect x="4" y="13" width="10" height="1" fill="#ddd"/><rect x="4" y="15" width="38" height="4" fill="#ddd"/><rect x="4" y="22" width="10" height="1" fill="#ddd"/><rect x="4" y="24" width="38" height="4" fill="#ddd"/><rect x="4" y="31" width="10" height="1" fill="#ddd"/><rect x="4" y="33" width="38" height="4" fill="#ddd"/><rect x="4" y="40" width="10" height="1" fill="#ddd"/><rect x="4" y="42" width="38" height="4" fill="#ddd"/><rect x="4" y="49" width="10" height="1" fill="#ddd"/><rect x="4" y="51" width="38" height="4" fill="#ddd"/></svg>