<svg xmlns="http://www.w3.org/2000/svg" viewBox="0 0 80 60"><title>woocommerce-cart-layout--default</title><rect width="80" height="60" fill="#fff"/><rect x="15" y="36" width="50" height="20" fill="#ccc"/><rect x="47" y="50" width="16" height="4" fill="#fff"/><rect x="17" y="38" width="13" height="1" fill="#fff"/><rect x="60" y="38" width="3" height="1" fill="#fff"/><rect x="17" y="41" width="9" height="1" fill="#fff"/><rect x="60" y="41" width="3" height="1" fill="#fff"/><rect x="17" y="44" width="11" height="1" fill="#fff"/><rect x="60" y="44" width="3" height="1" fill="#fff"/><rect x="15" y="4" width="5" height="5" fill="#ddd"/><rect x="22" y="6" width="10" height="1" fill="#ddd"/><rect x="55" y="6" width="4" height="1" fill="#ddd"/><rect x="61" y="6" width="4" height="1" fill="#ddd"/><rect x="15" y="12" width="5" height="5" fill="#ddd"/><rect x="22" y="14" width="10" height="1" fill="#ddd"/><rect x="55" y="14" width="4" height="1" fill="#ddd"/><rect x="61" y="14" width="4" height="1" fill="#ddd"/><rect x="15" y="20" width="5" height="5" fill="#ddd"/><rect x="22" y="22" width="10" height="1" fill="#ddd"/><rect x="55" y="22" width="4" height="1" fill="#ddd"/><rect x="61" y="22" width="4" height="1" fill="#ddd"/><rect x="15" y="28" width="5" height="5" fill="#ddd"/><rect x="22" y="30" width="10" height="1" fill="#ddd"/><rect x="55" y="30" width="4" height="1" fill="#ddd"/><rect x="61" y="30" width="4" height="1" fill="#ddd"/></svg>