<svg xmlns="http://www.w3.org/2000/svg" viewBox="0 0 80 60"><title>woocommerce-checkout-layout--default</title><rect width="80" height="60" fill="#fff"/><rect x="15" y="31" width="50" height="25" fill="#ccc"/><rect x="17" y="50" width="46" height="4" fill="#fff"/><rect x="17" y="39" width="46" height="4" fill="#ddd"/><rect x="17" y="33" width="13" height="1" fill="#fff"/><rect x="60" y="33" width="3" height="1" fill="#fff"/><rect x="17" y="36" width="9" height="1" fill="#fff"/><rect x="60" y="36" width="3" height="1" fill="#fff"/><rect x="17" y="44" width="46" height="4" fill="#ddd"/><rect x="15" y="4" width="10" height="1" fill="#ddd"/><rect x="15" y="6" width="24" height="4" fill="#ddd"/><rect x="41" y="4" width="10" height="1" fill="#ddd"/><rect x="41" y="6" width="24" height="4" fill="#ddd"/><rect x="15" y="13" width="10" height="1" fill="#ddd"/><rect x="15" y="15" width="50" height="4" fill="#ddd"/><rect x="15" y="22" width="10" height="1" fill="#ddd"/><rect x="15" y="24" width="50" height="4" fill="#ddd"/></svg>