<svg xmlns="http://www.w3.org/2000/svg" viewBox="0 0 250 80"><title>suki-logo</title><path d="M33.39,50.28a2.2,2.2,0,0,0,.38-3.06L25.14,35.85a5.37,5.37,0,0,1,1.78-8L80,0,59.48,5.11a39.95,39.95,0,0,0-48,62.82Z" fill="#377dff"/><path d="M46.61,29.72a2.2,2.2,0,0,0-.38,3.06l8.63,11.37a5.37,5.37,0,0,1-1.78,8L0,80l20.52-5.11A39.95,39.95,0,0,0,68.57,12.07Z" fill="#377dff"/><path d="M100.23,55.1l4.58-5.47a1,1,0,0,1,1.38-.14c3.81,3,7.83,4.84,12.63,4.84,4,0,6.47-1.61,6.47-4.23V50c0-2.5-1.53-3.78-9-5.71-9-2.3-14.87-4.8-14.87-13.71v-.13c0-8.14,6.54-13.53,15.7-13.53A26,26,0,0,1,133,22a1,1,0,0,1,.21,1.36l-4,5.84a1,1,0,0,1-1.38.26c-3.69-2.42-7.32-3.87-10.84-3.87-3.79,0-5.77,1.73-5.77,3.91v.13c0,3,1.92,3.91,9.67,5.9C130,37.92,135.1,41.19,135.1,49v.12C135.1,58,128.31,63,118.63,63a28.6,28.6,0,0,1-18.28-6.53A1,1,0,0,1,100.23,55.1Z" fill="#324058"/><path d="M143,43.17V18.53a1,1,0,0,1,1-1h7.87a1,1,0,0,1,1,1V42.92c0,7.3,3.65,11.09,9.68,11.09s9.67-3.66,9.67-10.77V18.53a1,1,0,0,1,1-1h7.87a1,1,0,0,1,1,1V42.85c0,13.59-7.62,20.26-19.67,20.26S143,56.38,143,43.17Z" fill="#324058"/><path d="M192.78,17.53h7.87a1,1,0,0,1,1,1V37.15l17.9-19.3a1,1,0,0,1,.73-.32h9.14a1,1,0,0,1,.72,1.69L213.5,36.57l17.92,24.24a1,1,0,0,1-.81,1.59h-9.36a1,1,0,0,1-.81-.41L206.84,43.3l-5.19,5.39V61.4a1,1,0,0,1-1,1h-7.87a1,1,0,0,1-1-1V18.53A1,1,0,0,1,192.78,17.53Z" fill="#324058"/><path d="M241.13,17.53H249a1,1,0,0,1,1,1V61.4a1,1,0,0,1-1,1h-7.87a1,1,0,0,1-1-1V18.53A1,1,0,0,1,241.13,17.53Z" fill="#324058"/></svg>