<svg xmlns="http://www.w3.org/2000/svg" viewBox="0 0 250 80"><title>SUKI</title><path d="M371.43,347.93l22-17.65a2.2,2.2,0,0,0,.38-3.06l-8.63-11.37a5.37,5.37,0,0,1,1.78-8L440,280l-20.52,5.11a39.95,39.95,0,0,0-48.05,62.82Z" transform="translate(-360 -280)" fill="#2c95d2"/><path d="M428.57,292.07l-22,17.65a2.2,2.2,0,0,0-.38,3.06l8.63,11.37a5.37,5.37,0,0,1-1.78,8L360,360l20.52-5.11a39.95,39.95,0,0,0,48.05-62.82Z" transform="translate(-360 -280)" fill="#2c95d2"/><path d="M460.23,335.1l4.58-5.47a1,1,0,0,1,1.38-.14c3.81,3,7.83,4.84,12.63,4.84,4,0,6.47-1.61,6.47-4.23V330c0-2.5-1.53-3.78-9-5.71-9-2.3-14.87-4.8-14.87-13.71v-.13c0-8.14,6.54-13.53,15.7-13.53A26,26,0,0,1,493,302a1,1,0,0,1,.21,1.36l-4,5.84a1,1,0,0,1-1.38.26c-3.69-2.42-7.32-3.87-10.84-3.87-3.79,0-5.77,1.73-5.77,3.91v.13c0,3,1.92,3.91,9.67,5.9,9.1,2.37,14.23,5.64,14.23,13.46v.12c0,8.91-6.79,13.91-16.47,13.91a28.6,28.6,0,0,1-18.28-6.53A1,1,0,0,1,460.23,335.1Z" transform="translate(-360 -280)" fill="#384455"/><path d="M503,323.17V298.53a1,1,0,0,1,1-1h7.87a1,1,0,0,1,1,1v24.39c0,7.3,3.65,11.09,9.68,11.09s9.67-3.66,9.67-10.77V298.53a1,1,0,0,1,1-1h7.87a1,1,0,0,1,1,1v24.32c0,13.59-7.62,20.26-19.67,20.26S503,336.38,503,323.17Z" transform="translate(-360 -280)" fill="#384455"/><path d="M552.78,297.53h7.87a1,1,0,0,1,1,1v18.62l17.9-19.3a1,1,0,0,1,.73-.32h9.14a1,1,0,0,1,.72,1.69L573.5,316.57l17.92,24.24a1,1,0,0,1-.81,1.59h-9.36a1,1,0,0,1-.81-.41l-13.6-18.69-5.19,5.39V341.4a1,1,0,0,1-1,1h-7.87a1,1,0,0,1-1-1V298.53A1,1,0,0,1,552.78,297.53Z" transform="translate(-360 -280)" fill="#384455"/><path d="M601.13,297.53H609a1,1,0,0,1,1,1V341.4a1,1,0,0,1-1,1h-7.87a1,1,0,0,1-1-1V298.53A1,1,0,0,1,601.13,297.53Z" transform="translate(-360 -280)" fill="#384455"/></svg>