<svg xmlns="http://www.w3.org/2000/svg" viewBox="0 0 64 64"><title>_fallback</title><path d="M46.14,43.31a2,2,0,0,1-2.83,2.83L32,34.83,20.69,46.14a2,2,0,1,1-2.83-2.83L29.17,32,17.86,20.69a2,2,0,1,1,2.83-2.83L32,29.17,43.31,17.86a2,2,0,1,1,2.83,2.83L34.83,32ZM0,4V7H4V6A2,2,0,0,1,6,4H7V0H4A4,4,0,0,0,0,4ZM4,27H0V17H4ZM4,47H0V37H4ZM6,60H7v4H4a4,4,0,0,1-4-4V57H4v1A2,2,0,0,0,6,60ZM17,0H27V4H17ZM37,0H47V4H37ZM64,4V7H60V6a2,2,0,0,0-2-2H57V0h3A4,4,0,0,1,64,4ZM60,17h4V27H60Zm0,20h4V47H60ZM17,60H27v4H17Zm43-3h4v3a4,4,0,0,1-4,4H57V60h1a2,2,0,0,0,2-2ZM37,60H47v4H37Z"/></svg>