<?xml version="1.0" encoding="utf-8"?>
<!-- Generator: Adobe Illustrator 22.1.0, SVG Export Plug-In . SVG Version: 6.00 Build 0)  -->
<svg version="1.1" id="Layer_1" xmlns="http://www.w3.org/2000/svg" xmlns:xlink="http://www.w3.org/1999/xlink" x="0px" y="0px"
	 viewBox="0 0 64 64" style="enable-background:new 0 0 64 64;" xml:space="preserve">
<title>submenu-right</title>
<path d="M15.3,32c0-0.8,0.3-1.6,0.9-2.1L43.9,2.2c0.8-0.8,2-0.8,2.8,0c0,0,0,0,0,0l1.4,1.4c0.8,0.8,0.8,2,0,2.8L22.5,32l25.6,25.6
	c0.8,0.8,0.8,2,0,2.8l-1.4,1.4c-0.8,0.8-2,0.8-2.8,0c0,0,0,0,0,0L16.2,34.1C15.6,33.6,15.3,32.8,15.3,32z"/>
</svg>
